#!OML:ASF H:\GeneralSubjects\Female5\Project 1\Capture day 1\Session 1\Female5.ASF
:FULLY-SPECIFIED
:DEGREES
509
root -9.06043 15.2129 -2.72771 153.635 -76.8469 218.3
lowerback 9.33803 2.00725 5.88919
upperback -10.3103 4.01866 4.96098
thorax -16.9738 1.36502 1.49236
lowerneck -15.3419 -0.384386 -2.60459
upperneck 31.4063 3.25774 -13.0645
head 13.4471 -1.12987 -4.34389
rclavicle 2.70347e-014 2.06736e-014
rhumerus -45.437 29.2043 -82.4502
rradius 43.1964
rwrist -21.2068
rhand -21.5701 -8.88657
rfingers 7.12502
rthumb 4.82385 -38.8117
lclavicle 2.70347e-014 2.06736e-014
lhumerus -57.233 10.9239 61.6504
lradius 32.6966
lwrist -3.78353
lhand -30.2037 31.6396
lfingers 7.12502
lthumb -3.51418 61.5904
rfemur 17.211 10.1892 36.3367
rtibia 11.3677
rfoot -13.902 -19.0394
rtoes -33.9334
lfemur -42.3582 -8.00822 -15.7941
ltibia 29.4946
lfoot -12.4404 14.3572
ltoes -64.4256
510
root -9.41892 15.2588 -2.67505 154.693 -78.4527 216.692
lowerback 9.4072 1.79382 4.96901
upperback -10.2461 3.5665 4.70645
thorax -16.9659 1.26292 1.80795
lowerneck -15.3812 -0.491459 -2.78587
upperneck 31.679 3.16102 -13.0176
head 13.5661 -1.20604 -4.33005
rclavicle 7.85199e-015 2.46493e-014
rhumerus -46.5673 28.7919 -82.7197
rradius 43.1123
rwrist -21.6137
rhand -21.8615 -8.94405
rfingers 7.12502
rthumb 4.5425 -38.8753
lclavicle 7.85199e-015 2.46493e-014
lhumerus -56.357 11.1443 62.2851
lradius 32.3283
lwrist -4.48316
lhand -30.1017 32.6359
lfingers 7.12502
lthumb -3.41563 62.5883
rfemur 15.7105 6.44669 32.8539
rtibia 15.8136
rfoot -8.04544 -17.5845
rtoes -34.0976
lfemur -40.2763 -8.92195 -18.5575
ltibia 29.4589
lfoot -12.557 12.9547
ltoes -64.17
511
root -9.76503 15.3114 -2.61909 155.805 -79.9745 214.954
lowerback 9.59597 1.59406 4.23313
upperback -10.1676 3.16513 4.39728
thorax -16.9988 1.15563 1.94769
lowerneck -15.3125 -0.546021 -2.75709
upperneck 32.0954 3.07737 -12.9771
head 13.7246 -1.25807 -4.36311
rclavicle -2.31584e-014 -6.67916e-014
rhumerus -47.5393 28.151 -82.9784
rradius 42.7277
rwrist -21.5891
rhand -21.5087 -9.708
rfingers 7.12502
rthumb 4.8832 -39.6317
lclavicle -2.31584e-014 -6.67916e-014
lhumerus -55.3029 11.195 62.9959
lradius 31.8048
lwrist -4.88831
lhand -30.4348 31.7848
lfingers 7.12502
lthumb -3.73734 61.7317
rfemur 13.9432 3.07957 29.5511
rtibia 20.8687
rfoot -2.75713 -17.2555
rtoes -30.1331
lfemur -37.6083 -9.67085 -21.1457
ltibia 28.5338
lfoot -12.7416 11.775
ltoes -64.5175
512
root -10.0966 15.3635 -2.56344 156.37 -81.2268 213.787
lowerback 9.81991 1.38484 3.63322
upperback -10.0171 2.78834 4.26615
thorax -16.9685 1.05662 2.21144
lowerneck -15.4076 -0.611229 -2.97017
upperneck 32.4535 3.07044 -12.9773
head 13.9063 -1.31516 -4.35977
rclavicle -1.77912e-014 4.37326e-014
rhumerus -48.2046 27.6317 -83.0556
rradius 42.2294
rwrist -20.9853
rhand -20.436 -11.867
rfingers 7.12502
rthumb 5.91891 -41.7644
lclavicle -1.77912e-014 4.37326e-014
lhumerus -54.2505 11.7508 63.4998
lradius 31.2066
lwrist -5.58796
lhand -30.6991 31.827
lfingers 7.12502
lthumb -3.99253 61.7694
rfemur 11.9452 0.575415 26.9534
rtibia 26.202
rfoot 3.49696 -17.8377
rtoes -35.0893
lfemur -34.722 -10.365 -23.2169
ltibia 27.0877
lfoot -12.7411 10.8021
ltoes -64.5199
513
root -10.4187 15.4143 -2.5046 158.513 -82.2699 211.015
lowerback 10.0819 1.22392 2.92053
upperback -9.78812 2.46281 4.18763
thorax -16.8689 0.999606 2.58605
lowerneck -15.4789 -0.640275 -3.025
upperneck 32.6491 3.12583 -13.2043
head 14.0244 -1.34735 -4.45703
rclavicle -4.07509e-015 1.98785e-014
rhumerus -48.6641 27.4597 -83.1223
rradius 41.6713
rwrist -20.2274
rhand -18.9351 -13.4158
rfingers 7.12502
rthumb 7.36781 -43.2675
lclavicle -4.07509e-015 1.98785e-014
lhumerus -53.1744 12.64 63.8636
lradius 30.8112
lwrist -6.72841
lhand -29.7454 34.188
lfingers 7.12502
lthumb -3.07157 64.1456
rfemur 9.78566 -1.254 24.5949
rtibia 31.5182
rfoot 8.28888 -18.8051
rtoes -41.0853
lfemur -31.6452 -11.1962 -25.1821
ltibia 25.3903
lfoot -13.0001 10.0156
ltoes -64.1017
514
root -10.7347 15.4616 -2.44793 165.377 -83.1582 203.483
lowerback 10.3655 1.18824 1.90519
upperback -9.56549 2.23123 3.90445
thorax -16.7892 1.00527 2.87519
lowerneck -15.3597 -0.687778 -3.02217
upperneck 32.7936 3.07682 -13.3068
head 14.0621 -1.39036 -4.51844
rclavicle 1.69961e-014 -8.11041e-014
rhumerus -49.1577 27.4372 -83.4068
rradius 40.9544
rwrist -19.2696
rhand -17.7234 -12.5891
rfingers 7.12502
rthumb 8.53728 -42.3965
lclavicle 1.69961e-014 -8.11041e-014
lhumerus -51.948 12.7282 64.693
lradius 30.7405
lwrist -7.05993
lhand -29.0695 35.12
lfingers 7.12502
lthumb -2.41879 65.0861
rfemur 7.44878 -2.63871 22.0211
rtibia 36.4523
rfoot 11.4418 -19.789
rtoes -43.2294
lfemur -28.5034 -11.9966 -27.4932
ltibia 23.7334
lfoot -13.6294 9.51312
ltoes -63.7803
515
root -11.0455 15.5057 -2.40095 175.338 -83.7288 192.893
lowerback 10.5652 1.17616 0.651527
upperback -9.35011 1.98156 3.65254
thorax -16.6727 1.03001 3.34386
lowerneck -15.1187 -0.680114 -3.08996
upperneck 32.9221 3.08679 -13.3315
head 14.0671 -1.40447 -4.52123
rclavicle 4.96962e-016 -2.38542e-014
rhumerus -49.6138 27.7804 -83.8133
rradius 40.2066
rwrist -18.386
rhand -16.914 -11.6139
rfingers 7.12502
rthumb 9.31828 -41.388
lclavicle 4.96962e-016 -2.38542e-014
lhumerus -50.7145 12.3326 65.8985
lradius 30.8928
lwrist -6.83525
lhand -29.2485 33.2688
lfingers 7.12502
lthumb -2.59167 63.2328
rfemur 4.93567 -3.62411 19.7101
rtibia 40.7328
rfoot 13.7592 -20.8128
rtoes -43.8028
lfemur -25.5701 -12.5195 -29.8236
ltibia 22.3929
lfoot -14.1773 9.19527
ltoes -63.9557
516
root -11.3481 15.5467 -2.36364 184.452 -83.9094 183.299
lowerback 10.6882 1.21175 -0.399362
upperback -9.18876 1.82985 3.4511
thorax -16.5734 1.07431 3.7376
lowerneck -14.8325 -0.682986 -3.26513
upperneck 33.1081 3.06162 -13.2038
head 14.0796 -1.42923 -4.44967
rclavicle -7.95139e-016 2.70347e-014
rhumerus -50.0476 28.1275 -84.2772
rradius 39.5408
rwrist -17.8452
rhand -16.069 -11.9402
rfingers 7.12502
rthumb 10.1336 -41.6762
lclavicle -7.95139e-016 2.70347e-014
lhumerus -49.4216 11.6943 67.0269
lradius 31.1303
lwrist -6.90075
lhand -29.3308 30.4214
lfingers 7.12502
lthumb -2.67123 60.3844
rfemur 1.98224 -4.21768 18.1308
rtibia 44.6471
rfoot 14.5789 -22.9205
rtoes -32.3902
lfemur -22.9507 -12.8291 -31.7054
ltibia 21.1957
lfoot -14.4966 9.11948
ltoes -64.5343
517
root -11.6413 15.5834 -2.32989 193.122 -83.8552 174.322
lowerback 10.7671 1.33262 -1.15721
upperback -9.12678 1.82043 3.07771
thorax -16.5596 1.13354 3.73681
lowerneck -14.5202 -0.716665 -3.37806
upperneck 33.3415 2.92584 -12.9032
head 14.0916 -1.46818 -4.33487
rclavicle 1.15295e-014 4.37326e-014
rhumerus -50.5109 27.9822 -84.7699
rradius 38.9048
rwrist -17.2167
rhand -15.427 -12.4048
rfingers 7.12502
rthumb 10.7529 -42.1096
lclavicle 1.15295e-014 4.37326e-014
lhumerus -48.0186 10.5319 67.9412
lradius 31.5765
lwrist -7.47623
lhand -28.5641 28.786
lfingers 7.12502
lthumb -1.9307 58.757
rfemur -1.5341 -4.56821 16.9451
rtibia 48.263
rfoot 10.8519 -23.1575
rtoes -27.9226
lfemur -20.4095 -13.0908 -33.4252
ltibia 19.6054
lfoot -14.7504 9.10793
ltoes -64.8169
518
root -11.9247 15.6207 -2.30237 201.468 -83.7016 165.874
lowerback 10.7777 1.41482 -1.97893
upperback -9.14867 1.74463 2.74779
thorax -16.6078 1.17231 3.84232
lowerneck -14.3387 -0.653223 -3.46676
upperneck 33.6676 2.94609 -12.6045
head 14.1887 -1.44704 -4.21292
rclavicle -1.98785e-015 -7.15625e-015
rhumerus -50.9437 27.9494 -85.2092
rradius 38.2934
rwrist -16.6722
rhand -15.3016 -12.4183
rfingers 7.12502
rthumb 10.8738 -42.1167
lclavicle -1.98785e-015 -7.15625e-015
lhumerus -46.8015 9.15496 68.9495
lradius 32.3773
lwrist -7.49102
lhand -27.6759 28.6412
lfingers 7.12502
lthumb -1.07288 58.6183
rfemur -5.44155 -4.67881 16.0849
rtibia 51.2581
rfoot 7.67619 -23.2608
rtoes -19.0572
lfemur -18.0176 -13.3323 -35.045
ltibia 17.7451
lfoot -15.0566 8.82177
ltoes -64.7765
519
root -12.198 15.6599 -2.28546 206.301 -83.7243 161.181
lowerback 10.6428 1.38789 -2.56753
upperback -9.21536 1.58507 2.63644
thorax -16.6094 1.16007 4.08998
lowerneck -14.2451 -0.556642 -3.5177
upperneck 34.0046 3.04031 -12.4026
head 14.3212 -1.40705 -4.13072
rclavicle -1.07344e-014 -1.66979e-014
rhumerus -51.3288 28.1149 -85.515
rradius 37.7642
rwrist -16.4552
rhand -15.4545 -11.9934
rfingers 7.12502
rthumb 10.7264 -41.6995
lclavicle -1.07344e-014 -1.66979e-014
lhumerus -45.6531 7.75005 70.2868
lradius 33.1851
lwrist -5.31983
lhand -29.8905 27.7287
lfingers 7.12502
lthumb -3.21168 57.6843
rfemur -9.72298 -4.51336 16.0924
rtibia 53.7341
rfoot 4.78741 -24.084
rtoes -11.9874
lfemur -16.0076 -13.6746 -36.0326
ltibia 15.9686
lfoot -15.3113 8.49074
ltoes -64.8244
